# Wavefront OBJ file automatically generated by Tiled2Unity

# Vertices (Count = 187)
v -480 -320 0
v -512 -320 0
v -512 -288 0
v -480 -288 0
v -448 -320 0
v -448 -288 0
v -416 -320 0
v -416 -288 0
v -384 -320 0
v -384 -288 0
v -352 -320 0
v -352 -288 0
v -320 -320 0
v -320 -288 0
v -288 -320 0
v -288 -288 0
v -256 -320 0
v -256 -288 0
v -224 -320 0
v -224 -288 0
v -192 -320 0
v -192 -288 0
v -160 -320 0
v -160 -288 0
v -128 -320 0
v -128 -288 0
v -96 -320 0
v -96 -288 0
v -64 -320 0
v -64 -288 0
v -32 -320 0
v -32 -288 0
v 0 -320 0
v 0 -288 0
v -512 -256 0
v -480 -256 0
v -448 -256 0
v -416 -256 0
v -384 -256 0
v -352 -256 0
v -320 -256 0
v -288 -256 0
v -256 -256 0
v -224 -256 0
v -192 -256 0
v -160 -256 0
v -128 -256 0
v -96 -256 0
v -64 -256 0
v -32 -256 0
v 0 -256 0
v -512 -224 0
v -480 -224 0
v -448 -224 0
v -416 -224 0
v -384 -224 0
v -352 -224 0
v -320 -224 0
v -288 -224 0
v -256 -224 0
v -224 -224 0
v -192 -224 0
v -160 -224 0
v -128 -224 0
v -96 -224 0
v -64 -224 0
v -32 -224 0
v 0 -224 0
v -512 -192 0
v -480 -192 0
v -448 -192 0
v -416 -192 0
v -384 -192 0
v -352 -192 0
v -320 -192 0
v -288 -192 0
v -256 -192 0
v -224 -192 0
v -192 -192 0
v -160 -192 0
v -128 -192 0
v -96 -192 0
v -64 -192 0
v -32 -192 0
v 0 -192 0
v -512 -160 0
v -480 -160 0
v -448 -160 0
v -416 -160 0
v -384 -160 0
v -352 -160 0
v -320 -160 0
v -288 -160 0
v -256 -160 0
v -224 -160 0
v -192 -160 0
v -160 -160 0
v -128 -160 0
v -96 -160 0
v -64 -160 0
v -32 -160 0
v 0 -160 0
v -512 -128 0
v -480 -128 0
v -448 -128 0
v -416 -128 0
v -384 -128 0
v -352 -128 0
v -320 -128 0
v -288 -128 0
v -256 -128 0
v -224 -128 0
v -192 -128 0
v -160 -128 0
v -128 -128 0
v -96 -128 0
v -64 -128 0
v -32 -128 0
v 0 -128 0
v -512 -96 0
v -480 -96 0
v -448 -96 0
v -416 -96 0
v -384 -96 0
v -352 -96 0
v -320 -96 0
v -288 -96 0
v -256 -96 0
v -224 -96 0
v -192 -96 0
v -160 -96 0
v -128 -96 0
v -96 -96 0
v -64 -96 0
v -32 -96 0
v 0 -96 0
v -512 -64 0
v -480 -64 0
v -448 -64 0
v -416 -64 0
v -384 -64 0
v -352 -64 0
v -320 -64 0
v -288 -64 0
v -256 -64 0
v -224 -64 0
v -192 -64 0
v -160 -64 0
v -128 -64 0
v -96 -64 0
v -64 -64 0
v -32 -64 0
v 0 -64 0
v -512 -32 0
v -480 -32 0
v -448 -32 0
v -416 -32 0
v -384 -32 0
v -352 -32 0
v -320 -32 0
v -288 -32 0
v -256 -32 0
v -224 -32 0
v -192 -32 0
v -160 -32 0
v -128 -32 0
v -96 -32 0
v -64 -32 0
v -32 -32 0
v 0 -32 0
v -512 0 0
v -480 0 0
v -448 0 0
v -416 0 0
v -384 0 0
v -352 0 0
v -320 0 0
v -288 0 0
v -256 0 0
v -224 0 0
v -192 0 0
v -160 0 0
v -128 0 0
v -96 0 0
v -64 0 0
v -32 0 0
v 0 0 0

# Texture Coorindates (Count = 36)
vt 0.1251221 0.0001220703
vt 0.2498779 0.0001220703
vt 0.2498779 0.2498779
vt 0.1251221 0.2498779
vt 0.2501221 0.0001220703
vt 0.3748779 0.0001220703
vt 0.3748779 0.2498779
vt 0.2501221 0.2498779
vt 0.3751221 0.0001220703
vt 0.4998779 0.0001220703
vt 0.4998779 0.2498779
vt 0.3751221 0.2498779
vt 0.0001220703 0.0001220703
vt 0.1248779 0.0001220703
vt 0.1248779 0.2498779
vt 0.0001220703 0.2498779
vt 0.3751221 0.2501221
vt 0.4998779 0.2501221
vt 0.4998779 0.4998779
vt 0.3751221 0.4998779
vt 0.5001221 0.2501221
vt 0.6248779 0.2501221
vt 0.6248779 0.4998779
vt 0.5001221 0.4998779
vt 0.8751221 0.2501221
vt 0.9998779 0.2501221
vt 0.9998779 0.4998779
vt 0.8751221 0.4998779
vt 0.7501221 0.2501221
vt 0.8748779 0.2501221
vt 0.8748779 0.4998779
vt 0.7501221 0.4998779
vt 0.6251221 0.2501221
vt 0.7498779 0.2501221
vt 0.7498779 0.4998779
vt 0.6251221 0.4998779

# Normal
vn 0 0 -1

# Groups (Count = 1)
g mesh_[00]_[00]
f  1/1/1  2/2/1  3/3/1  4/4/1 
f  5/5/1  1/6/1  4/7/1  6/8/1 
f  7/5/1  5/6/1  6/7/1  8/8/1 
f  9/5/1  7/6/1  8/7/1  10/8/1 
f  11/5/1  9/6/1  10/7/1  12/8/1 
f  13/5/1  11/6/1  12/7/1  14/8/1 
f  15/5/1  13/6/1  14/7/1  16/8/1 
f  17/5/1  15/6/1  16/7/1  18/8/1 
f  19/5/1  17/6/1  18/7/1  20/8/1 
f  21/5/1  19/6/1  20/7/1  22/8/1 
f  23/5/1  21/6/1  22/7/1  24/8/1 
f  25/5/1  23/6/1  24/7/1  26/8/1 
f  27/5/1  25/6/1  26/7/1  28/8/1 
f  29/5/1  27/6/1  28/7/1  30/8/1 
f  31/5/1  29/6/1  30/7/1  32/8/1 
f  33/9/1  31/10/1  32/11/1  34/12/1 
f  4/13/1  3/14/1  35/15/1  36/16/1 
f  6/17/1  4/18/1  36/19/1  37/20/1 
f  8/17/1  6/18/1  37/19/1  38/20/1 
f  10/17/1  8/18/1  38/19/1  39/20/1 
f  12/17/1  10/18/1  39/19/1  40/20/1 
f  14/17/1  12/18/1  40/19/1  41/20/1 
f  16/17/1  14/18/1  41/19/1  42/20/1 
f  18/17/1  16/18/1  42/19/1  43/20/1 
f  20/17/1  18/18/1  43/19/1  44/20/1 
f  22/17/1  20/18/1  44/19/1  45/20/1 
f  24/17/1  22/18/1  45/19/1  46/20/1 
f  26/17/1  24/18/1  46/19/1  47/20/1 
f  28/17/1  26/18/1  47/19/1  48/20/1 
f  30/17/1  28/18/1  48/19/1  49/20/1 
f  32/17/1  30/18/1  49/19/1  50/20/1 
f  34/21/1  32/22/1  50/23/1  51/24/1 
f  36/13/1  35/14/1  52/15/1  53/16/1 
f  37/17/1  36/18/1  53/19/1  54/20/1 
f  38/17/1  37/18/1  54/19/1  55/20/1 
f  39/17/1  38/18/1  55/19/1  56/20/1 
f  40/17/1  39/18/1  56/19/1  57/20/1 
f  41/17/1  40/18/1  57/19/1  58/20/1 
f  42/17/1  41/18/1  58/19/1  59/20/1 
f  43/17/1  42/18/1  59/19/1  60/20/1 
f  44/17/1  43/18/1  60/19/1  61/20/1 
f  45/17/1  44/18/1  61/19/1  62/20/1 
f  46/17/1  45/18/1  62/19/1  63/20/1 
f  47/17/1  46/18/1  63/19/1  64/20/1 
f  48/17/1  47/18/1  64/19/1  65/20/1 
f  49/17/1  48/18/1  65/19/1  66/20/1 
f  50/17/1  49/18/1  66/19/1  67/20/1 
f  51/21/1  50/22/1  67/23/1  68/24/1 
f  53/13/1  52/14/1  69/15/1  70/16/1 
f  54/17/1  53/18/1  70/19/1  71/20/1 
f  55/17/1  54/18/1  71/19/1  72/20/1 
f  56/17/1  55/18/1  72/19/1  73/20/1 
f  57/17/1  56/18/1  73/19/1  74/20/1 
f  58/17/1  57/18/1  74/19/1  75/20/1 
f  59/17/1  58/18/1  75/19/1  76/20/1 
f  60/17/1  59/18/1  76/19/1  77/20/1 
f  61/17/1  60/18/1  77/19/1  78/20/1 
f  62/17/1  61/18/1  78/19/1  79/20/1 
f  63/17/1  62/18/1  79/19/1  80/20/1 
f  64/17/1  63/18/1  80/19/1  81/20/1 
f  65/17/1  64/18/1  81/19/1  82/20/1 
f  66/17/1  65/18/1  82/19/1  83/20/1 
f  67/17/1  66/18/1  83/19/1  84/20/1 
f  68/21/1  67/22/1  84/23/1  85/24/1 
f  70/13/1  69/14/1  86/15/1  87/16/1 
f  71/17/1  70/18/1  87/19/1  88/20/1 
f  72/17/1  71/18/1  88/19/1  89/20/1 
f  73/17/1  72/18/1  89/19/1  90/20/1 
f  74/17/1  73/18/1  90/19/1  91/20/1 
f  75/17/1  74/18/1  91/19/1  92/20/1 
f  76/17/1  75/18/1  92/19/1  93/20/1 
f  77/17/1  76/18/1  93/19/1  94/20/1 
f  78/17/1  77/18/1  94/19/1  95/20/1 
f  79/17/1  78/18/1  95/19/1  96/20/1 
f  80/17/1  79/18/1  96/19/1  97/20/1 
f  81/17/1  80/18/1  97/19/1  98/20/1 
f  82/17/1  81/18/1  98/19/1  99/20/1 
f  83/17/1  82/18/1  99/19/1  100/20/1 
f  84/17/1  83/18/1  100/19/1  101/20/1 
f  85/21/1  84/22/1  101/23/1  102/24/1 
f  87/13/1  86/14/1  103/15/1  104/16/1 
f  88/17/1  87/18/1  104/19/1  105/20/1 
f  89/17/1  88/18/1  105/19/1  106/20/1 
f  90/17/1  89/18/1  106/19/1  107/20/1 
f  91/17/1  90/18/1  107/19/1  108/20/1 
f  92/17/1  91/18/1  108/19/1  109/20/1 
f  93/17/1  92/18/1  109/19/1  110/20/1 
f  94/17/1  93/18/1  110/19/1  111/20/1 
f  95/17/1  94/18/1  111/19/1  112/20/1 
f  96/17/1  95/18/1  112/19/1  113/20/1 
f  97/17/1  96/18/1  113/19/1  114/20/1 
f  98/17/1  97/18/1  114/19/1  115/20/1 
f  99/17/1  98/18/1  115/19/1  116/20/1 
f  100/17/1  99/18/1  116/19/1  117/20/1 
f  101/17/1  100/18/1  117/19/1  118/20/1 
f  102/21/1  101/22/1  118/23/1  119/24/1 
f  104/13/1  103/14/1  120/15/1  121/16/1 
f  105/17/1  104/18/1  121/19/1  122/20/1 
f  106/17/1  105/18/1  122/19/1  123/20/1 
f  107/17/1  106/18/1  123/19/1  124/20/1 
f  108/17/1  107/18/1  124/19/1  125/20/1 
f  109/17/1  108/18/1  125/19/1  126/20/1 
f  110/17/1  109/18/1  126/19/1  127/20/1 
f  111/17/1  110/18/1  127/19/1  128/20/1 
f  112/17/1  111/18/1  128/19/1  129/20/1 
f  113/17/1  112/18/1  129/19/1  130/20/1 
f  114/17/1  113/18/1  130/19/1  131/20/1 
f  115/17/1  114/18/1  131/19/1  132/20/1 
f  116/17/1  115/18/1  132/19/1  133/20/1 
f  117/17/1  116/18/1  133/19/1  134/20/1 
f  118/17/1  117/18/1  134/19/1  135/20/1 
f  119/21/1  118/22/1  135/23/1  136/24/1 
f  121/13/1  120/14/1  137/15/1  138/16/1 
f  122/17/1  121/18/1  138/19/1  139/20/1 
f  123/17/1  122/18/1  139/19/1  140/20/1 
f  124/17/1  123/18/1  140/19/1  141/20/1 
f  125/17/1  124/18/1  141/19/1  142/20/1 
f  126/17/1  125/18/1  142/19/1  143/20/1 
f  127/17/1  126/18/1  143/19/1  144/20/1 
f  128/17/1  127/18/1  144/19/1  145/20/1 
f  129/17/1  128/18/1  145/19/1  146/20/1 
f  130/17/1  129/18/1  146/19/1  147/20/1 
f  131/17/1  130/18/1  147/19/1  148/20/1 
f  132/17/1  131/18/1  148/19/1  149/20/1 
f  133/17/1  132/18/1  149/19/1  150/20/1 
f  134/17/1  133/18/1  150/19/1  151/20/1 
f  135/17/1  134/18/1  151/19/1  152/20/1 
f  136/21/1  135/22/1  152/23/1  153/24/1 
f  138/13/1  137/14/1  154/15/1  155/16/1 
f  139/17/1  138/18/1  155/19/1  156/20/1 
f  140/17/1  139/18/1  156/19/1  157/20/1 
f  141/17/1  140/18/1  157/19/1  158/20/1 
f  142/17/1  141/18/1  158/19/1  159/20/1 
f  143/17/1  142/18/1  159/19/1  160/20/1 
f  144/17/1  143/18/1  160/19/1  161/20/1 
f  145/17/1  144/18/1  161/19/1  162/20/1 
f  146/17/1  145/18/1  162/19/1  163/20/1 
f  147/17/1  146/18/1  163/19/1  164/20/1 
f  148/17/1  147/18/1  164/19/1  165/20/1 
f  149/17/1  148/18/1  165/19/1  166/20/1 
f  150/17/1  149/18/1  166/19/1  167/20/1 
f  151/17/1  150/18/1  167/19/1  168/20/1 
f  152/17/1  151/18/1  168/19/1  169/20/1 
f  153/21/1  152/22/1  169/23/1  170/24/1 
f  155/25/1  154/26/1  171/27/1  172/28/1 
f  156/29/1  155/30/1  172/31/1  173/32/1 
f  157/29/1  156/30/1  173/31/1  174/32/1 
f  158/29/1  157/30/1  174/31/1  175/32/1 
f  159/29/1  158/30/1  175/31/1  176/32/1 
f  160/29/1  159/30/1  176/31/1  177/32/1 
f  161/29/1  160/30/1  177/31/1  178/32/1 
f  162/29/1  161/30/1  178/31/1  179/32/1 
f  163/29/1  162/30/1  179/31/1  180/32/1 
f  164/29/1  163/30/1  180/31/1  181/32/1 
f  165/29/1  164/30/1  181/31/1  182/32/1 
f  166/29/1  165/30/1  182/31/1  183/32/1 
f  167/29/1  166/30/1  183/31/1  184/32/1 
f  168/29/1  167/30/1  184/31/1  185/32/1 
f  169/29/1  168/30/1  185/31/1  186/32/1 
f  170/33/1  169/34/1  186/35/1  187/36/1 
